<svg xmlns="http://www.w3.org/2000/svg" xmlns:xlink="http://www.w3.org/1999/xlink" width="500" zoomAndPan="magnify" viewBox="0 0 375 374.999991" height="500" preserveAspectRatio="xMidYMid meet" version="1.0"><defs><g/></defs><rect x="-37.5" width="450" fill="#ffffff" y="-37.499999" height="449.999989" fill-opacity="1"/><rect x="-37.5" width="450" fill="#31435b" y="-37.499999" height="449.999989" fill-opacity="1"/><g fill="#ffffff" fill-opacity="1"><g transform="translate(84.108196, 318.178978)"><g><path d="M 2.0625 0 L 2.0625 -0.609375 C 2.800781 -0.847656 3.28125 -1.34375 3.5 -2.09375 C 3.71875 -2.84375 3.828125 -4.007812 3.828125 -5.59375 L 3.828125 -25.21875 C 3.828125 -26.800781 3.71875 -27.96875 3.5 -28.71875 C 3.28125 -29.46875 2.800781 -29.957031 2.0625 -30.1875 L 2.0625 -30.8125 L 13.078125 -30.8125 C 16.242188 -30.8125 18.90625 -30.351562 21.0625 -29.4375 C 23.21875 -28.53125 24.941406 -27.335938 26.234375 -25.859375 C 27.523438 -24.378906 28.460938 -22.769531 29.046875 -21.03125 C 29.640625 -19.300781 29.9375 -17.628906 29.9375 -16.015625 C 29.957031 -12.847656 29.316406 -10.0625 28.015625 -7.65625 C 26.710938 -5.25 24.863281 -3.367188 22.46875 -2.015625 C 20.070312 -0.671875 17.265625 0 14.046875 0 Z M 8.5 -3.921875 C 8.5 -2.890625 8.671875 -2.09375 9.015625 -1.53125 C 9.367188 -0.976562 10.148438 -0.703125 11.359375 -0.703125 L 13.734375 -0.703125 C 17.285156 -0.703125 20.003906 -1.722656 21.890625 -3.765625 C 23.785156 -5.804688 24.734375 -9.171875 24.734375 -13.859375 C 24.734375 -16.890625 24.203125 -19.628906 23.140625 -22.078125 C 22.085938 -24.523438 20.5 -26.472656 18.375 -27.921875 C 16.25 -29.378906 13.539062 -30.109375 10.25 -30.109375 L 8.5 -30.109375 Z M 8.5 -3.921875 "/></g></g></g><g fill="#ffffff" fill-opacity="1"><g transform="translate(116.277996, 318.178978)"><g><path d="M -0.921875 0 L -0.921875 -0.609375 C -0.242188 -0.847656 0.390625 -1.304688 0.984375 -1.984375 C 1.585938 -2.660156 2.179688 -3.726562 2.765625 -5.1875 L 11 -25.609375 C 11.320312 -26.429688 11.296875 -27.226562 10.921875 -28 L 10.34375 -29.21875 L 14.65625 -31.15625 L 25.578125 -5.15625 C 26.191406 -3.71875 26.785156 -2.660156 27.359375 -1.984375 C 27.929688 -1.304688 28.46875 -0.847656 28.96875 -0.609375 L 28.96875 0 L 20.953125 0 L 20.953125 -0.609375 C 21.679688 -0.847656 21.953125 -1.304688 21.765625 -1.984375 C 21.578125 -2.660156 21.175781 -3.71875 20.5625 -5.15625 L 17.921875 -11.484375 L 6.15625 -11.484375 L 3.609375 -5.1875 C 3.023438 -3.726562 2.789062 -2.644531 2.90625 -1.9375 C 3.019531 -1.226562 3.445312 -0.785156 4.1875 -0.609375 L 4.1875 0 Z M 6.421875 -12.1875 L 17.609375 -12.1875 L 11.921875 -25.796875 Z M 6.421875 -12.1875 "/></g></g></g><g fill="#ffffff" fill-opacity="1"><g transform="translate(144.575109, 318.178978)"><g><path d="M 3.125 -25.609375 C 2.5625 -27.078125 1.992188 -28.148438 1.421875 -28.828125 C 0.859375 -29.503906 0.328125 -29.957031 -0.171875 -30.1875 L -0.171875 -30.8125 L 7.921875 -30.8125 L 7.921875 -30.1875 C 7.191406 -29.957031 6.910156 -29.503906 7.078125 -28.828125 C 7.253906 -28.148438 7.625 -27.078125 8.1875 -25.609375 L 16.28125 -5.0625 L 24.25 -25.609375 C 24.84375 -27.078125 25.070312 -28.164062 24.9375 -28.875 C 24.800781 -29.582031 24.351562 -30.019531 23.59375 -30.1875 L 23.59375 -30.8125 L 28.703125 -30.8125 L 28.703125 -30.1875 C 28.054688 -29.957031 27.4375 -29.503906 26.84375 -28.828125 C 26.257812 -28.148438 25.675781 -27.078125 25.09375 -25.609375 L 15.140625 0 L 13.46875 0 Z M 3.125 -25.609375 "/></g></g></g><g fill="#ffffff" fill-opacity="1"><g transform="translate(173.092257, 318.178978)"><g><path d="M 2.0625 0 L 2.0625 -0.609375 C 2.800781 -0.847656 3.28125 -1.34375 3.5 -2.09375 C 3.71875 -2.84375 3.828125 -4.007812 3.828125 -5.59375 L 3.828125 -25.21875 C 3.828125 -26.800781 3.71875 -27.96875 3.5 -28.71875 C 3.28125 -29.46875 2.800781 -29.957031 2.0625 -30.1875 L 2.0625 -30.8125 L 10.25 -30.8125 L 10.25 -30.1875 C 9.519531 -29.957031 9.046875 -29.46875 8.828125 -28.71875 C 8.609375 -27.96875 8.5 -26.800781 8.5 -25.21875 L 8.5 -5.59375 C 8.5 -4.007812 8.609375 -2.84375 8.828125 -2.09375 C 9.046875 -1.34375 9.519531 -0.847656 10.25 -0.609375 L 10.25 0 Z M 2.0625 0 "/></g></g></g><g fill="#ffffff" fill-opacity="1"><g transform="translate(185.414488, 318.178978)"><g><path d="M 2.0625 0 L 2.0625 -0.609375 C 2.800781 -0.847656 3.28125 -1.34375 3.5 -2.09375 C 3.71875 -2.84375 3.828125 -4.007812 3.828125 -5.59375 L 3.828125 -25.21875 C 3.828125 -26.800781 3.71875 -27.96875 3.5 -28.71875 C 3.28125 -29.46875 2.800781 -29.957031 2.0625 -30.1875 L 2.0625 -30.8125 L 13.078125 -30.8125 C 16.242188 -30.8125 18.90625 -30.351562 21.0625 -29.4375 C 23.21875 -28.53125 24.941406 -27.335938 26.234375 -25.859375 C 27.523438 -24.378906 28.460938 -22.769531 29.046875 -21.03125 C 29.640625 -19.300781 29.9375 -17.628906 29.9375 -16.015625 C 29.957031 -12.847656 29.316406 -10.0625 28.015625 -7.65625 C 26.710938 -5.25 24.863281 -3.367188 22.46875 -2.015625 C 20.070312 -0.671875 17.265625 0 14.046875 0 Z M 8.5 -3.921875 C 8.5 -2.890625 8.671875 -2.09375 9.015625 -1.53125 C 9.367188 -0.976562 10.148438 -0.703125 11.359375 -0.703125 L 13.734375 -0.703125 C 17.285156 -0.703125 20.003906 -1.722656 21.890625 -3.765625 C 23.785156 -5.804688 24.734375 -9.171875 24.734375 -13.859375 C 24.734375 -16.890625 24.203125 -19.628906 23.140625 -22.078125 C 22.085938 -24.523438 20.5 -26.472656 18.375 -27.921875 C 16.25 -29.378906 13.539062 -30.109375 10.25 -30.109375 L 8.5 -30.109375 Z M 8.5 -3.921875 "/></g></g></g><g fill="#ffffff" fill-opacity="1"><g transform="translate(217.584287, 318.178978)"><g/></g></g><g fill="#ffffff" fill-opacity="1"><g transform="translate(226.385878, 318.178978)"><g><path d="M 2.0625 0 L 2.0625 -0.609375 C 2.800781 -0.847656 3.28125 -1.34375 3.5 -2.09375 C 3.71875 -2.84375 3.828125 -4.007812 3.828125 -5.59375 L 3.828125 -25.21875 C 3.828125 -26.800781 3.71875 -27.96875 3.5 -28.71875 C 3.28125 -29.46875 2.800781 -29.957031 2.0625 -30.1875 L 2.0625 -30.8125 L 10.25 -30.8125 L 10.25 -30.1875 C 9.519531 -29.957031 9.046875 -29.46875 8.828125 -28.71875 C 8.609375 -27.96875 8.5 -26.800781 8.5 -25.21875 L 8.5 -14.875 L 19.1875 -25.84375 C 20.59375 -27.28125 21.351562 -28.359375 21.46875 -29.078125 C 21.59375 -29.796875 21.1875 -30.226562 20.25 -30.375 L 20.25 -30.8125 L 27.15625 -30.8125 L 27.15625 -30.1875 C 26.28125 -29.957031 25.332031 -29.617188 24.3125 -29.171875 C 23.300781 -28.734375 22.238281 -27.945312 21.125 -26.8125 L 11.75 -17.203125 L 12.859375 -17.25 C 14.492188 -17.34375 15.847656 -17.253906 16.921875 -16.984375 C 17.992188 -16.722656 18.890625 -16.25 19.609375 -15.5625 C 20.328125 -14.875 20.976562 -13.941406 21.5625 -12.765625 C 22.15625 -11.585938 22.785156 -10.117188 23.453125 -8.359375 C 24.335938 -6.128906 25.03125 -4.460938 25.53125 -3.359375 C 26.03125 -2.265625 26.460938 -1.53125 26.828125 -1.15625 C 27.191406 -0.789062 27.609375 -0.609375 28.078125 -0.609375 C 28.203125 -0.609375 28.3125 -0.609375 28.40625 -0.609375 C 28.507812 -0.609375 28.625 -0.625 28.75 -0.65625 L 28.75 0 C 28.25 0.113281 27.738281 0.191406 27.21875 0.234375 C 26.707031 0.285156 26.21875 0.3125 25.75 0.3125 C 24.84375 0.3125 24.09375 0.210938 23.5 0.015625 C 22.914062 -0.171875 22.410156 -0.519531 21.984375 -1.03125 C 21.554688 -1.539062 21.113281 -2.296875 20.65625 -3.296875 C 20.207031 -4.296875 19.644531 -5.601562 18.96875 -7.21875 C 18.269531 -8.914062 17.679688 -10.359375 17.203125 -11.546875 C 16.734375 -12.742188 16.269531 -13.703125 15.8125 -14.421875 C 15.363281 -15.140625 14.832031 -15.660156 14.21875 -15.984375 C 13.601562 -16.304688 12.796875 -16.46875 11.796875 -16.46875 L 11 -16.46875 L 8.5 -13.859375 L 8.5 -5.59375 C 8.5 -4.007812 8.609375 -2.84375 8.828125 -2.09375 C 9.046875 -1.34375 9.519531 -0.847656 10.25 -0.609375 L 10.25 0 Z M 2.0625 0 "/></g></g></g><g fill="#ffffff" fill-opacity="1"><g transform="translate(254.770998, 318.178978)"><g><path d="M 18.140625 0.4375 C 16.253906 0.4375 14.382812 0.125 12.53125 -0.5 C 10.6875 -1.132812 8.992188 -2.101562 7.453125 -3.40625 C 5.921875 -4.71875 4.691406 -6.378906 3.765625 -8.390625 C 2.835938 -10.398438 2.375 -12.78125 2.375 -15.53125 C 2.375 -17.707031 2.753906 -19.738281 3.515625 -21.625 C 4.285156 -23.519531 5.363281 -25.179688 6.75 -26.609375 C 8.144531 -28.035156 9.8125 -29.148438 11.75 -29.953125 C 13.6875 -30.753906 15.816406 -31.15625 18.140625 -31.15625 C 19.984375 -31.15625 21.835938 -30.832031 23.703125 -30.1875 C 25.566406 -29.539062 27.257812 -28.566406 28.78125 -27.265625 C 30.3125 -25.960938 31.535156 -24.3125 32.453125 -22.3125 C 33.378906 -20.320312 33.84375 -17.972656 33.84375 -15.265625 C 33.84375 -12.597656 33.378906 -10.273438 32.453125 -8.296875 C 31.535156 -6.316406 30.304688 -4.679688 28.765625 -3.390625 C 27.222656 -2.097656 25.523438 -1.132812 23.671875 -0.5 C 21.828125 0.125 19.984375 0.4375 18.140625 0.4375 Z M 6.953125 -18.21875 C 7.097656 -16.019531 7.546875 -13.882812 8.296875 -11.8125 C 9.046875 -9.75 10.019531 -7.898438 11.21875 -6.265625 C 12.425781 -4.640625 13.828125 -3.34375 15.421875 -2.375 C 17.023438 -1.40625 18.765625 -0.921875 20.640625 -0.921875 C 22.898438 -0.921875 24.691406 -1.425781 26.015625 -2.4375 C 27.335938 -3.457031 28.269531 -4.785156 28.8125 -6.421875 C 29.351562 -8.066406 29.550781 -9.859375 29.40625 -11.796875 C 29.226562 -14.140625 28.785156 -16.394531 28.078125 -18.5625 C 27.378906 -20.738281 26.429688 -22.691406 25.234375 -24.421875 C 24.046875 -26.160156 22.660156 -27.523438 21.078125 -28.515625 C 19.492188 -29.515625 17.75 -30.015625 15.84375 -30.015625 C 13.851562 -30.015625 12.164062 -29.53125 10.78125 -28.5625 C 9.40625 -27.59375 8.382812 -26.21875 7.71875 -24.4375 C 7.0625 -22.664062 6.804688 -20.59375 6.953125 -18.21875 Z M 6.953125 -18.21875 "/></g></g></g><g fill="#ffffff" fill-opacity="1"><g transform="translate(109.221852, 179.995482)"><g><path d="M 8.296875 0 L 8.296875 -2.109375 C 10.785156 -2.867188 12.488281 -4.492188 13.40625 -6.984375 C 14.332031 -9.484375 14.796875 -14.039062 14.796875 -20.65625 L 14.796875 -93.21875 C 14.796875 -99.9375 14.332031 -104.515625 13.40625 -106.953125 C 12.488281 -109.390625 10.785156 -110.988281 8.296875 -111.75 L 8.296875 -113.875 L 47.171875 -113.875 C 58.347656 -113.875 67.894531 -112.269531 75.8125 -109.0625 C 83.726562 -105.863281 90.175781 -101.609375 95.15625 -96.296875 C 100.144531 -90.984375 103.804688 -85.097656 106.140625 -78.640625 C 108.472656 -72.191406 109.640625 -65.660156 109.640625 -59.046875 C 109.742188 -47.660156 107.382812 -37.519531 102.5625 -28.625 C 97.738281 -19.738281 90.90625 -12.742188 82.0625 -7.640625 C 73.226562 -2.546875 62.847656 0 50.921875 0 Z M 28.140625 -14.3125 C 28.140625 -10.519531 28.789062 -7.59375 30.09375 -5.53125 C 31.394531 -3.46875 34.269531 -2.4375 38.71875 -2.4375 L 50.59375 -2.4375 C 64.800781 -2.4375 75.726562 -6.53125 83.375 -14.71875 C 91.019531 -22.90625 94.84375 -35.515625 94.84375 -52.546875 C 94.84375 -63.390625 92.726562 -73.253906 88.5 -82.140625 C 84.269531 -91.035156 78.03125 -98.140625 69.78125 -103.453125 C 61.539062 -108.773438 51.347656 -111.4375 39.203125 -111.4375 L 28.140625 -111.4375 Z M 28.140625 -14.3125 "/></g></g></g><g fill="#ffffff" fill-opacity="1"><g transform="translate(155.800331, 253.102153)"><g><path d="M 8.296875 0 L 8.296875 -2.109375 C 10.785156 -2.867188 12.488281 -4.492188 13.40625 -6.984375 C 14.332031 -9.484375 14.796875 -14.039062 14.796875 -20.65625 L 14.796875 -93.21875 C 14.796875 -99.9375 14.332031 -104.515625 13.40625 -106.953125 C 12.488281 -109.390625 10.785156 -110.988281 8.296875 -111.75 L 8.296875 -113.875 L 34.65625 -113.875 L 34.65625 -111.75 C 32.15625 -110.988281 30.441406 -109.390625 29.515625 -106.953125 C 28.597656 -104.515625 28.140625 -99.9375 28.140625 -93.21875 L 28.140625 -51.890625 L 70.765625 -95.484375 C 75.859375 -100.796875 78.8125 -104.832031 79.625 -107.59375 C 80.4375 -110.363281 79.269531 -111.96875 76.125 -112.40625 L 76.125 -113.875 L 98.734375 -113.875 L 98.734375 -111.75 C 96.140625 -110.988281 93.101562 -109.875 89.625 -108.40625 C 86.15625 -106.945312 82.09375 -103.832031 77.4375 -99.0625 L 42.78125 -63.609375 L 46.53125 -63.765625 C 52.601562 -64.203125 57.5625 -63.90625 61.40625 -62.875 C 65.257812 -61.84375 68.457031 -59.96875 71 -57.25 C 73.550781 -54.539062 75.9375 -50.851562 78.15625 -46.1875 C 80.382812 -41.53125 82.851562 -35.734375 85.5625 -28.796875 C 88.382812 -21.847656 90.71875 -16.445312 92.5625 -12.59375 C 94.40625 -8.75 96.113281 -6.066406 97.6875 -4.546875 C 99.257812 -3.035156 100.910156 -2.28125 102.640625 -2.28125 C 103.179688 -2.28125 103.671875 -2.28125 104.109375 -2.28125 C 104.546875 -2.28125 104.976562 -2.332031 105.40625 -2.4375 L 105.40625 -0.328125 C 104 0.109375 102.453125 0.40625 100.765625 0.5625 C 99.085938 0.726562 97.382812 0.8125 95.65625 0.8125 C 91.75 0.8125 88.601562 -0.0234375 86.21875 -1.703125 C 83.832031 -3.390625 81.6875 -6.15625 79.78125 -10 C 77.882812 -13.851562 75.640625 -18.925781 73.046875 -25.21875 C 70.328125 -31.832031 68.019531 -37.441406 66.125 -42.046875 C 64.226562 -46.660156 62.300781 -50.375 60.34375 -53.1875 C 58.394531 -56.007812 56.117188 -58.046875 53.515625 -59.296875 C 50.910156 -60.546875 47.550781 -61.113281 43.4375 -61 L 40.1875 -61 L 28.140625 -48.640625 L 28.140625 -20.65625 C 28.140625 -14.039062 28.597656 -9.484375 29.515625 -6.984375 C 30.441406 -4.492188 32.15625 -2.867188 34.65625 -2.109375 L 34.65625 0 Z M 8.296875 0 "/></g></g></g></svg>